<?xml version="1.0" standalone="no"?>
<svg xmlns:xlink="http://www.w3.org/1999/xlink" id="wave" style="transform:rotate(180deg); transition: 0.3s" viewBox="0 0 1440 100" version="1.1" xmlns="http://www.w3.org/2000/svg"><defs><linearGradient id="sw-gradient-0" x1="0" x2="0" y1="1" y2="0"><stop stop-color="rgba(255, 249, 234, 1)" offset="0%"/><stop stop-color="rgba(255, 249, 234, 1)" offset="100%"/></linearGradient></defs><path style="transform:translate(0, 0px); opacity:1" fill="url(#sw-gradient-0)" d="M0,0L60,13.3C120,27,240,53,360,58.3C480,63,600,47,720,35C840,23,960,17,1080,21.7C1200,27,1320,43,1440,45C1560,47,1680,33,1800,38.3C1920,43,2040,67,2160,75C2280,83,2400,77,2520,70C2640,63,2760,57,2880,45C3000,33,3120,17,3240,18.3C3360,20,3480,40,3600,41.7C3720,43,3840,27,3960,25C4080,23,4200,37,4320,48.3C4440,60,4560,70,4680,70C4800,70,4920,60,5040,56.7C5160,53,5280,57,5400,63.3C5520,70,5640,80,5760,83.3C5880,87,6000,83,6120,76.7C6240,70,6360,60,6480,53.3C6600,47,6720,43,6840,35C6960,27,7080,13,7200,16.7C7320,20,7440,40,7560,55C7680,70,7800,80,7920,83.3C8040,87,8160,83,8280,71.7C8400,60,8520,40,8580,30L8640,20L8640,100L8580,100C8520,100,8400,100,8280,100C8160,100,8040,100,7920,100C7800,100,7680,100,7560,100C7440,100,7320,100,7200,100C7080,100,6960,100,6840,100C6720,100,6600,100,6480,100C6360,100,6240,100,6120,100C6000,100,5880,100,5760,100C5640,100,5520,100,5400,100C5280,100,5160,100,5040,100C4920,100,4800,100,4680,100C4560,100,4440,100,4320,100C4200,100,4080,100,3960,100C3840,100,3720,100,3600,100C3480,100,3360,100,3240,100C3120,100,3000,100,2880,100C2760,100,2640,100,2520,100C2400,100,2280,100,2160,100C2040,100,1920,100,1800,100C1680,100,1560,100,1440,100C1320,100,1200,100,1080,100C960,100,840,100,720,100C600,100,480,100,360,100C240,100,120,100,60,100L0,100Z"/></svg>